<?xml version="1.0" encoding="UTF-8"?>
<svg xmlns="http://www.w3.org/2000/svg" xmlns:xlink="http://www.w3.org/1999/xlink" width="1024px" height="1024px" viewBox="0 0 512 512" version="1.1">
<g id="surface1">
<path style=" stroke:none;fill-rule:nonzero;fill:rgb(55.686277%,38.039216%,78.039217%);fill-opacity:1;" d="M 0 0 C 168.960938 0 337.921875 0 512 0 C 512 168.960938 512 337.921875 512 512 C 343.039062 512 174.078125 512 0 512 C 0 343.039062 0 174.078125 0 0 Z M 0 0 "/>
<path style=" stroke:none;fill-rule:nonzero;fill:rgb(98.823529%,98.823529%,99.215686%);fill-opacity:1;" d="M 0 0 C 168.960938 0 337.921875 0 512 0 C 512 168.960938 512 337.921875 512 512 C 343.039062 512 174.078125 512 0 512 C 0 343.039062 0 174.078125 0 0 Z M 116 91.5 C 115.292969 92.113281 114.582031 92.730469 113.875 93.34375 C 113.25 93.894531 112.625 94.449219 112 95 C 111.640625 95.316406 111.28125 95.636719 110.910156 95.964844 C 107.75 98.777344 104.710938 101.695312 101.71875 104.6875 C 101.058594 105.339844 101.058594 105.339844 100.382812 106.003906 C 97.367188 109.011719 94.660156 112.175781 92 115.5 C 91.539062 116.042969 91.074219 116.585938 90.601562 117.125 C 61.402344 150.660156 45.929688 194.195312 42 238 C 41.953125 238.511719 41.902344 239.023438 41.855469 239.546875 C 41.464844 244.03125 41.398438 248.503906 41.40625 253 C 41.40625 253.390625 41.40625 253.78125 41.40625 254.183594 C 41.417969 261.820312 41.769531 269.394531 42.5 277 C 42.546875 277.484375 42.589844 277.96875 42.636719 278.46875 C 43.988281 292.078125 47.289062 305.515625 51.5 318.5 C 51.675781 319.042969 51.847656 319.582031 52.027344 320.140625 C 54.679688 328.328125 57.84375 336.210938 61.5 344 C 61.734375 344.5 61.96875 344.996094 62.207031 345.511719 C 67.355469 356.371094 73.429688 366.777344 80.5 376.5 C 80.734375 376.824219 80.96875 377.148438 81.210938 377.480469 C 86.578125 384.832031 92.277344 391.855469 98.5 398.5 C 98.96875 399.015625 99.4375 399.527344 99.90625 400.046875 C 103.578125 404.09375 107.308594 408.042969 111.460938 411.601562 C 112.601562 412.585938 113.703125 413.605469 114.8125 414.625 C 117.914062 417.417969 121.191406 419.960938 124.5 422.5 C 124.8125 422.742188 125.125 422.984375 125.449219 423.234375 C 156.054688 446.804688 192.632812 461.921875 231 466.5 C 231.339844 466.542969 231.675781 466.585938 232.027344 466.632812 C 239.117188 467.523438 246.15625 467.65625 253.300781 467.628906 C 255.148438 467.625 256.996094 467.628906 258.847656 467.636719 C 268.457031 467.644531 277.960938 467.097656 287.46875 465.65625 C 288.292969 465.53125 288.292969 465.53125 289.136719 465.402344 C 309.324219 462.210938 329.0625 456.363281 347.5 447.5 C 347.949219 447.285156 348.394531 447.070312 348.855469 446.851562 C 366.71875 438.234375 383.558594 427.0625 398.207031 413.667969 C 398.914062 413.03125 399.621094 412.394531 400.347656 411.777344 C 403.125 409.394531 405.726562 406.847656 408.308594 404.257812 C 409.03125 403.53125 409.753906 402.8125 410.476562 402.089844 C 413.089844 399.480469 415.609375 396.816406 418 394 C 418.421875 393.519531 418.84375 393.035156 419.28125 392.539062 C 427.695312 382.773438 435.058594 372.15625 441.5 361 C 441.6875 360.675781 441.878906 360.351562 442.074219 360.019531 C 453.128906 340.996094 461.140625 320.332031 465.714844 298.820312 C 465.945312 297.753906 466.191406 296.6875 466.445312 295.625 C 471.683594 273.328125 471.949219 249.148438 469 226.5 C 468.917969 225.875 468.839844 225.25 468.757812 224.601562 C 463.914062 188.378906 449.53125 152.835938 427 124 C 426.578125 123.449219 426.15625 122.898438 425.734375 122.347656 C 421.195312 116.460938 416.429688 110.789062 411.101562 105.601562 C 410.074219 104.574219 409.125 103.515625 408.1875 102.40625 C 406.792969 100.78125 405.304688 99.398438 403.671875 98.015625 C 402.503906 97.003906 401.378906 95.957031 400.257812 94.894531 C 396.964844 91.800781 393.535156 88.964844 389.941406 86.222656 C 388.960938 85.46875 387.988281 84.707031 387.019531 83.941406 C 381.722656 79.785156 376.199219 76.078125 370.5 72.5 C 370.183594 72.300781 369.871094 72.097656 369.546875 71.890625 C 335.878906 50.488281 295.507812 40.398438 255.84375 40.375 C 255.355469 40.375 254.863281 40.375 254.359375 40.375 C 207.511719 40.425781 162.734375 55.683594 116 91.5 Z M 116 91.5 "/>
<path style=" stroke:none;fill-rule:nonzero;fill:rgb(99.607843%,99.607843%,99.607843%);fill-opacity:1;" d="M 262.222656 79.5625 C 266.171875 82.460938 268.324219 86.605469 270.59375 90.84375 C 271.085938 91.75 271.582031 92.660156 272.078125 93.566406 C 272.410156 94.171875 272.742188 94.78125 273.074219 95.390625 C 274.542969 98.09375 276.058594 100.769531 277.59375 103.4375 C 277.957031 104.074219 277.957031 104.074219 278.328125 104.722656 C 278.8125 105.566406 279.296875 106.40625 279.78125 107.25 C 280.984375 109.34375 282.179688 111.4375 283.375 113.53125 C 285.050781 116.464844 286.730469 119.402344 288.410156 122.335938 C 291.964844 128.542969 295.496094 134.761719 298.984375 141.007812 C 301.570312 145.636719 304.195312 150.242188 306.832031 154.835938 C 307.5 156 307.5 156 308.3125 157.796875 C 308.824219 158.738281 308.824219 158.738281 309.5 159.5 C 311.183594 160.019531 311.183594 160.019531 313.144531 159.925781 C 313.511719 159.929688 313.878906 159.933594 314.257812 159.9375 C 315.492188 159.945312 316.722656 159.929688 317.957031 159.910156 C 318.839844 159.914062 319.722656 159.914062 320.605469 159.917969 C 322.511719 159.921875 324.414062 159.917969 326.320312 159.902344 C 329.332031 159.878906 332.34375 159.878906 335.359375 159.886719 C 340.671875 159.890625 345.984375 159.875 351.296875 159.855469 C 359.285156 159.824219 367.273438 159.8125 375.261719 159.820312 C 378.257812 159.820312 381.25 159.8125 384.242188 159.792969 C 386.109375 159.785156 387.976562 159.785156 389.839844 159.785156 C 390.703125 159.785156 391.566406 159.777344 392.429688 159.769531 C 397.515625 159.722656 402.207031 159.703125 406.328125 163.09375 C 406.632812 163.464844 406.9375 163.835938 407.25 164.21875 C 407.566406 164.589844 407.878906 164.960938 408.203125 165.34375 C 409.671875 167.476562 410.152344 169.292969 410.1875 171.875 C 410.203125 172.355469 410.214844 172.839844 410.230469 173.335938 C 409.628906 177.671875 406.902344 181.59375 404.78125 185.34375 C 404.472656 185.890625 404.164062 186.441406 403.847656 187.003906 C 401.605469 190.964844 399.3125 194.894531 396.988281 198.804688 C 394.84375 202.402344 392.746094 206.027344 390.65625 209.65625 C 388.414062 213.550781 386.164062 217.4375 383.882812 221.304688 C 382.132812 224.273438 380.390625 227.242188 378.65625 230.21875 C 378.363281 230.71875 378.074219 231.21875 377.773438 231.734375 C 376.164062 234.492188 374.5625 237.253906 372.972656 240.015625 C 372.804688 240.308594 372.636719 240.601562 372.464844 240.902344 C 371.652344 242.3125 370.839844 243.722656 370.03125 245.136719 C 369.738281 245.648438 369.441406 246.160156 369.140625 246.6875 C 368.722656 247.414062 368.722656 247.414062 368.296875 248.152344 C 367.574219 249.375 366.800781 250.542969 366 251.71875 C 365.269531 252.894531 365.003906 253.347656 364.960938 254.753906 C 365.734375 256.539062 366.628906 258.21875 367.59375 259.90625 C 367.925781 260.492188 367.925781 260.492188 368.261719 261.089844 C 370.371094 264.816406 372.535156 268.507812 374.699219 272.203125 C 377.007812 276.140625 379.273438 280.097656 381.53125 284.0625 C 384.171875 288.695312 386.847656 293.304688 389.570312 297.890625 C 392.277344 302.453125 394.925781 307.050781 397.570312 311.652344 C 398.71875 313.644531 399.867188 315.636719 401.027344 317.625 C 401.535156 318.5 402.042969 319.371094 402.550781 320.246094 C 403.179688 321.335938 403.816406 322.425781 404.449219 323.511719 C 411.089844 334.964844 411.089844 334.964844 409.726562 340.644531 C 408.5625 344.105469 406.59375 346.078125 403.546875 347.992188 C 401.226562 349.117188 398.792969 349.074219 396.261719 349.078125 C 395.890625 349.082031 395.519531 349.085938 395.136719 349.085938 C 393.894531 349.09375 392.652344 349.097656 391.410156 349.101562 C 390.515625 349.109375 389.625 349.113281 388.734375 349.117188 C 386.3125 349.132812 383.890625 349.140625 381.472656 349.152344 C 378.941406 349.164062 376.414062 349.175781 373.882812 349.191406 C 369.09375 349.214844 364.304688 349.238281 359.511719 349.257812 C 354.058594 349.285156 348.605469 349.3125 343.152344 349.339844 C 331.933594 349.394531 320.71875 349.449219 309.5 349.5 C 309.285156 349.886719 309.070312 350.273438 308.851562 350.671875 C 308.046875 352.125 307.242188 353.578125 306.433594 355.027344 C 306.089844 355.652344 305.742188 356.28125 305.394531 356.90625 C 302.886719 361.433594 300.316406 365.921875 297.667969 370.371094 C 296.320312 372.648438 294.988281 374.933594 293.65625 377.21875 C 293.359375 377.726562 293.066406 378.230469 292.761719 378.753906 C 290.261719 383.042969 287.78125 387.339844 285.304688 391.644531 C 282.929688 395.757812 280.542969 399.867188 278.140625 403.964844 C 276.589844 406.617188 275.054688 409.277344 273.535156 411.949219 C 273.203125 412.53125 272.871094 413.113281 272.539062 413.695312 C 271.910156 414.796875 271.285156 415.898438 270.664062 417.003906 C 264.476562 427.839844 264.476562 427.839844 259.5 429.5 C 252.339844 430.136719 252.339844 430.136719 249.398438 427.789062 C 246.121094 424.914062 244.113281 421.296875 242 417.53125 C 241.503906 416.65625 241.003906 415.78125 240.507812 414.910156 C 240.167969 414.3125 239.828125 413.71875 239.492188 413.121094 C 237.851562 410.234375 236.179688 407.367188 234.5 404.5 C 232.070312 400.339844 229.652344 396.175781 227.25 392 C 223.976562 386.316406 220.675781 380.648438 217.367188 374.984375 C 215.910156 372.488281 214.457031 369.996094 213 367.5 C 212.742188 367.085938 212.488281 366.671875 212.222656 366.242188 C 210.65625 363.660156 209.332031 361.195312 208.34375 358.332031 C 207.003906 354.832031 205.527344 351.820312 202.5 349.5 C 196.816406 347.136719 189.574219 348.0625 183.578125 348.265625 C 181.0625 348.335938 178.546875 348.335938 176.03125 348.34375 C 171.269531 348.367188 166.511719 348.449219 161.75 348.554688 C 154.765625 348.707031 147.78125 348.777344 140.796875 348.839844 C 140.285156 348.84375 139.769531 348.847656 139.242188 348.855469 C 138.214844 348.863281 137.191406 348.871094 136.167969 348.882812 C 133.179688 348.910156 130.191406 348.957031 127.203125 349.023438 C 125.34375 349.058594 123.480469 349.089844 121.621094 349.117188 C 120.761719 349.132812 119.902344 349.152344 119.042969 349.175781 C 113.9375 349.316406 109.550781 349.265625 105.554688 345.644531 C 103.15625 343.164062 101.96875 340.242188 101.78125 336.8125 C 102.019531 332.09375 104.789062 327.945312 107.15625 324 C 107.785156 322.9375 108.414062 321.871094 109.046875 320.804688 C 109.367188 320.261719 109.691406 319.714844 110.023438 319.152344 C 111.601562 316.480469 113.144531 313.785156 114.6875 311.09375 C 117.246094 306.644531 119.84375 302.222656 122.46875 297.8125 C 126.042969 291.800781 129.527344 285.746094 132.984375 279.664062 C 134.371094 277.226562 135.761719 274.792969 137.152344 272.363281 C 138.011719 270.859375 138.871094 269.355469 139.726562 267.851562 C 141.136719 265.367188 142.554688 262.890625 144.039062 260.449219 C 144.367188 259.894531 144.367188 259.894531 144.703125 259.332031 C 145.09375 258.679688 145.488281 258.035156 145.894531 257.394531 C 146.476562 256.464844 146.476562 256.464844 147 255 C 146.46875 252.96875 145.644531 251.21875 144.617188 249.394531 C 144.339844 248.902344 144.0625 248.410156 143.78125 247.902344 C 143.480469 247.378906 143.183594 246.851562 142.875 246.3125 C 142.40625 245.484375 142.40625 245.484375 141.929688 244.636719 C 138.675781 238.890625 135.34375 233.191406 132 227.5 C 130.59375 225.105469 129.1875 222.707031 127.78125 220.3125 C 127.601562 220.007812 127.421875 219.703125 127.238281 219.386719 C 123.773438 213.480469 120.34375 207.550781 116.929688 201.617188 C 115.652344 199.394531 114.367188 197.171875 113.085938 194.949219 C 112.453125 193.847656 111.820312 192.75 111.1875 191.652344 C 109.746094 189.152344 108.304688 186.660156 106.84375 184.179688 C 106.460938 183.527344 106.460938 183.527344 106.070312 182.863281 C 105.601562 182.066406 105.132812 181.273438 104.660156 180.480469 C 102.359375 176.546875 101.140625 172.847656 102.308594 168.300781 C 103.457031 165.328125 105.308594 163.199219 108 161.5 C 110.714844 160.335938 112.949219 159.78125 115.917969 159.820312 C 116.289062 159.816406 116.664062 159.816406 117.046875 159.816406 C 118.285156 159.8125 119.523438 159.820312 120.761719 159.828125 C 121.652344 159.832031 122.546875 159.828125 123.4375 159.828125 C 125.851562 159.828125 128.265625 159.835938 130.679688 159.847656 C 133.207031 159.855469 135.730469 159.859375 138.257812 159.859375 C 143.035156 159.863281 147.816406 159.875 152.59375 159.890625 C 158.039062 159.910156 163.480469 159.917969 168.921875 159.925781 C 180.117188 159.941406 191.308594 159.964844 202.5 160 C 202.652344 159.613281 202.804688 159.222656 202.960938 158.824219 C 203.488281 157.527344 204.097656 156.359375 204.789062 155.144531 C 205.046875 154.691406 205.304688 154.242188 205.566406 153.777344 C 205.84375 153.292969 206.121094 152.808594 206.40625 152.3125 C 207 151.273438 207.589844 150.230469 208.183594 149.1875 C 208.488281 148.660156 208.789062 148.128906 209.101562 147.582031 C 209.949219 146.089844 210.789062 144.601562 211.628906 143.109375 C 214.644531 137.742188 217.707031 132.40625 220.816406 127.089844 C 225.097656 119.773438 229.335938 112.425781 233.535156 105.058594 C 235.035156 102.425781 236.539062 99.792969 238.046875 97.164062 C 238.671875 96.074219 239.296875 94.980469 239.917969 93.886719 C 240.773438 92.390625 241.636719 90.898438 242.5 89.40625 C 242.746094 88.972656 242.992188 88.539062 243.246094 88.09375 C 245.601562 84.058594 248.320312 79.976562 252.859375 78.296875 C 256.417969 77.371094 258.949219 77.976562 262.222656 79.5625 Z M 262.222656 79.5625 "/>
<path style=" stroke:none;fill-rule:nonzero;fill:rgb(56.078434%,38.431373%,78.039217%);fill-opacity:1;" d="M 219.988281 184.382812 C 220.960938 184.363281 220.960938 184.363281 221.957031 184.34375 C 222.683594 184.332031 223.410156 184.320312 224.136719 184.308594 C 224.898438 184.292969 225.660156 184.28125 226.417969 184.265625 C 233.375 184.144531 240.332031 184.074219 247.292969 184.019531 C 251.96875 183.980469 256.648438 183.925781 261.324219 183.832031 C 265.40625 183.75 269.484375 183.695312 273.566406 183.679688 C 275.726562 183.671875 277.882812 183.644531 280.042969 183.585938 C 293.164062 183.234375 293.164062 183.234375 296.195312 185.324219 C 297.996094 187.285156 298.921875 189.425781 299.664062 191.957031 C 300.171875 193.535156 300.988281 194.8125 301.867188 196.21875 C 302.441406 197.21875 303.019531 198.21875 303.59375 199.21875 C 304.242188 200.34375 304.890625 201.46875 305.539062 202.59375 C 305.863281 203.15625 306.1875 203.722656 306.523438 204.300781 C 308.097656 207.035156 309.671875 209.769531 311.25 212.5 C 311.875 213.582031 312.5 214.667969 313.125 215.75 C 313.433594 216.285156 313.742188 216.824219 314.0625 217.375 C 315 219 315.9375 220.625 316.875 222.25 C 317.183594 222.785156 317.496094 223.324219 317.8125 223.875 C 318.4375 224.957031 319.058594 226.035156 319.683594 227.117188 C 321.273438 229.875 322.867188 232.632812 324.464844 235.390625 C 326.03125 238.097656 327.589844 240.804688 329.144531 243.519531 C 329.957031 244.925781 330.777344 246.328125 331.601562 247.730469 C 332.066406 248.539062 332.535156 249.347656 333 250.15625 C 333.214844 250.515625 333.429688 250.871094 333.648438 251.242188 C 335.035156 253.675781 335.035156 253.675781 334.875 255.21875 C 334.488281 256.542969 333.996094 257.589844 333.3125 258.785156 C 332.933594 259.445312 332.933594 259.445312 332.550781 260.121094 C 332.277344 260.597656 332.003906 261.074219 331.71875 261.5625 C 331.429688 262.066406 331.140625 262.570312 330.84375 263.089844 C 328.304688 267.519531 325.695312 271.90625 323.082031 276.292969 C 320.65625 280.371094 318.28125 284.472656 315.9375 288.59375 C 313.191406 293.417969 310.421875 298.222656 307.617188 303.015625 C 306.066406 305.667969 304.519531 308.328125 302.984375 310.996094 C 302.730469 311.4375 302.730469 311.4375 302.472656 311.882812 C 301.65625 313.300781 300.84375 314.71875 300.03125 316.136719 C 299.734375 316.648438 299.441406 317.160156 299.140625 317.6875 C 298.882812 318.136719 298.625 318.582031 298.359375 319.042969 C 298.078125 319.523438 297.792969 320.003906 297.5 320.5 C 297.378906 320.828125 297.253906 321.160156 297.128906 321.496094 C 296.558594 322.777344 296.050781 323.558594 295 324.5 C 292.566406 325.136719 290.121094 325.074219 287.621094 325.058594 C 286.855469 325.066406 286.09375 325.078125 285.332031 325.089844 C 283.265625 325.121094 281.195312 325.121094 279.128906 325.121094 C 277.398438 325.117188 275.671875 325.128906 273.941406 325.140625 C 269.863281 325.164062 265.785156 325.167969 261.707031 325.160156 C 257.503906 325.148438 253.300781 325.179688 249.097656 325.226562 C 245.484375 325.265625 241.871094 325.28125 238.257812 325.273438 C 236.101562 325.269531 233.949219 325.277344 231.792969 325.308594 C 229.761719 325.339844 227.734375 325.335938 225.707031 325.308594 C 224.964844 325.304688 224.222656 325.308594 223.476562 325.328125 C 221.175781 325.382812 219.167969 325.308594 217 324.5 C 215.15625 322.519531 214.136719 320.457031 213 318 C 212.390625 316.894531 211.75 315.8125 211.105469 314.726562 C 210.464844 313.597656 209.824219 312.472656 209.1875 311.34375 C 208.484375 310.109375 207.78125 308.875 207.078125 307.640625 C 206.902344 307.332031 206.726562 307.023438 206.546875 306.707031 C 204.019531 302.273438 201.4375 297.867188 198.855469 293.464844 C 195.605469 287.910156 192.355469 282.351562 189.140625 276.777344 C 188.671875 275.96875 188.671875 275.96875 188.195312 275.140625 C 187.566406 274.050781 186.945312 272.960938 186.328125 271.867188 C 184.753906 269.097656 183.125 266.410156 181.332031 263.777344 C 176.527344 256.59375 176.527344 256.59375 176.480469 253.945312 C 176.996094 251.8125 178.339844 250.214844 179.695312 248.554688 C 181.296875 246.457031 182.511719 244.105469 183.8125 241.8125 C 184.421875 240.773438 185.03125 239.734375 185.644531 238.695312 C 187.480469 235.550781 189.261719 232.371094 191.03125 229.1875 C 193.453125 224.835938 195.9375 220.53125 198.484375 216.253906 C 200.675781 212.566406 202.8125 208.851562 204.9375 205.125 C 205.273438 204.539062 205.605469 203.949219 205.941406 203.363281 C 206.109375 203.070312 206.273438 202.777344 206.445312 202.476562 C 206.695312 202.039062 206.695312 202.039062 206.953125 201.59375 C 207.117188 201.296875 207.285156 201.003906 207.457031 200.703125 C 209.203125 197.640625 210.957031 194.582031 212.71875 191.527344 C 213.210938 190.671875 213.703125 189.8125 214.195312 188.953125 C 214.492188 188.441406 214.789062 187.929688 215.09375 187.402344 C 215.351562 186.949219 215.613281 186.496094 215.882812 186.027344 C 217.023438 184.125 217.78125 184.421875 219.988281 184.382812 Z M 219.988281 184.382812 "/>
<path style=" stroke:none;fill-rule:nonzero;fill:rgb(55.686277%,38.039216%,78.039217%);fill-opacity:1;" d="M 135.5 184.5 C 152.988281 184.5 170.480469 184.5 188.5 184.5 C 187.730469 186.421875 186.953125 188.050781 185.933594 189.832031 C 185.617188 190.386719 185.300781 190.941406 184.976562 191.511719 C 184.628906 192.113281 184.285156 192.710938 183.9375 193.3125 C 183.578125 193.941406 183.21875 194.566406 182.859375 195.195312 C 180.121094 199.957031 177.328125 204.683594 174.515625 209.398438 C 171.625 214.257812 168.816406 219.160156 166.023438 224.078125 C 165.707031 224.632812 165.390625 225.191406 165.066406 225.765625 C 164.789062 226.257812 164.507812 226.75 164.222656 227.257812 C 163.679688 228.191406 163.097656 229.101562 162.5 230 C 162.171875 230 161.839844 230 161.5 230 C 161.292969 229.632812 161.082031 229.265625 160.867188 228.890625 C 156.871094 221.859375 152.847656 214.851562 148.71875 207.898438 C 146.457031 204.089844 144.222656 200.265625 141.988281 196.445312 C 141.464844 195.554688 140.945312 194.664062 140.421875 193.773438 C 140.097656 193.21875 139.773438 192.664062 139.441406 192.089844 C 138.320312 190.195312 137.175781 188.320312 136.015625 186.449219 C 135.5 185.5 135.5 185.5 135.5 184.5 Z M 135.5 184.5 "/>
<path style=" stroke:none;fill-rule:nonzero;fill:rgb(55.686277%,38.039216%,78.039217%);fill-opacity:1;" d="M 324 184.5 C 341.324219 184.5 358.648438 184.5 376.5 184.5 C 372.597656 192.308594 372.597656 192.308594 371 194.875 C 368.925781 198.257812 366.941406 201.683594 364.96875 205.125 C 361.917969 210.433594 358.820312 215.707031 355.683594 220.964844 C 353.90625 223.949219 352.164062 226.949219 350.5 230 C 348.613281 229.371094 348.496094 228.851562 347.570312 227.140625 C 347.292969 226.636719 347.019531 226.136719 346.734375 225.621094 C 346.292969 224.804688 346.292969 224.804688 345.84375 223.96875 C 345.210938 222.816406 344.578125 221.664062 343.945312 220.515625 C 343.78125 220.21875 343.621094 219.925781 343.453125 219.621094 C 341.855469 216.71875 340.183594 213.855469 338.5 211 C 335.453125 205.8125 332.503906 200.578125 329.578125 195.320312 C 328.621094 193.605469 327.65625 191.894531 326.671875 190.195312 C 326.480469 189.863281 326.289062 189.53125 326.09375 189.191406 C 325.605469 188.355469 325.117188 187.523438 324.628906 186.6875 C 324 185.5 324 185.5 324 184.5 Z M 324 184.5 "/>
<path style=" stroke:none;fill-rule:nonzero;fill:rgb(55.686277%,38.039216%,78.039217%);fill-opacity:1;" d="M 161.5 279 C 161.828125 279 162.160156 279 162.5 279 C 162.691406 279.335938 162.886719 279.671875 163.085938 280.019531 C 166.714844 286.332031 170.359375 292.636719 174.074219 298.898438 C 176.089844 302.296875 178.078125 305.710938 180.0625 309.125 C 182.453125 313.242188 184.890625 317.324219 187.402344 321.367188 C 189 323.949219 189 323.949219 189 324.5 C 171.511719 324.5 154.019531 324.5 136 324.5 C 136.726562 322.6875 137.4375 321.128906 138.382812 319.445312 C 138.660156 318.949219 138.9375 318.457031 139.21875 317.945312 C 139.519531 317.417969 139.816406 316.886719 140.125 316.34375 C 140.4375 315.789062 140.75 315.234375 141.070312 314.664062 C 143.734375 309.941406 146.460938 305.253906 149.203125 300.574219 C 151.144531 297.253906 153.074219 293.925781 155 290.59375 C 155.304688 290.066406 155.609375 289.539062 155.925781 288.996094 C 157.832031 285.691406 159.6875 282.359375 161.5 279 Z M 161.5 279 "/>
<path style=" stroke:none;fill-rule:nonzero;fill:rgb(55.686277%,38.039216%,78.039217%);fill-opacity:1;" d="M 349.5 279.5 C 352.207031 281.816406 353.710938 284.765625 355.4375 287.84375 C 355.765625 288.421875 356.097656 289.003906 356.425781 289.582031 C 357.113281 290.785156 357.796875 291.992188 358.476562 293.195312 C 360.074219 296.015625 361.695312 298.820312 363.3125 301.625 C 363.773438 302.425781 363.773438 302.425781 364.246094 303.246094 C 366.570312 307.273438 368.921875 311.277344 371.308594 315.265625 C 373.117188 318.308594 374.800781 321.382812 376.5 324.5 C 359.011719 324.5 341.519531 324.5 323.5 324.5 C 325.867188 320.058594 328.226562 315.671875 330.78125 311.34375 C 331.390625 310.304688 332.003906 309.261719 332.613281 308.222656 C 332.925781 307.691406 333.234375 307.164062 333.554688 306.617188 C 334.808594 304.46875 336.046875 302.3125 337.285156 300.15625 C 341.269531 293.214844 345.359375 286.34375 349.5 279.5 Z M 349.5 279.5 "/>
<path style=" stroke:none;fill-rule:nonzero;fill:rgb(55.686277%,37.64706%,77.64706%);fill-opacity:1;" d="M 255.5 116 C 255.828125 116 256.160156 116 256.5 116 C 256.675781 116.316406 256.851562 116.632812 257.03125 116.957031 C 260.320312 122.871094 263.632812 128.761719 267.0625 134.59375 C 269.84375 139.328125 272.503906 144.113281 275.109375 148.945312 C 276.605469 151.707031 278.144531 154.445312 279.707031 157.171875 C 281 159.449219 281 159.449219 281 160 C 264.5 160 248 160 231 160 C 233.15625 155.6875 235.289062 151.527344 237.75 147.40625 C 240.652344 142.488281 243.453125 137.527344 246.214844 132.53125 C 249.273438 127 252.378906 121.496094 255.5 116 Z M 255.5 116 "/>
<path style=" stroke:none;fill-rule:nonzero;fill:rgb(55.686277%,38.039216%,78.039217%);fill-opacity:1;" d="M 231 349 C 247.335938 349 263.671875 349 280.5 349 C 279.746094 350.882812 278.984375 352.519531 278.007812 354.273438 C 277.707031 354.816406 277.410156 355.355469 277.101562 355.910156 C 276.777344 356.492188 276.449219 357.074219 276.125 357.65625 C 275.957031 357.953125 275.792969 358.253906 275.621094 358.5625 C 273.023438 363.222656 270.355469 367.84375 267.648438 372.445312 C 264.988281 376.980469 262.433594 381.574219 259.898438 386.179688 C 259.597656 386.722656 259.300781 387.261719 258.992188 387.820312 C 258.726562 388.304688 258.464844 388.785156 258.191406 389.28125 C 257.664062 390.210938 257.09375 391.113281 256.5 392 C 256.171875 392 255.839844 392 255.5 392 C 255.296875 391.644531 255.09375 391.289062 254.882812 390.921875 C 251.175781 384.417969 247.460938 377.921875 243.71875 371.4375 C 243.417969 370.914062 243.113281 370.390625 242.800781 369.847656 C 241.351562 367.335938 239.898438 364.824219 238.441406 362.3125 C 237.753906 361.121094 237.0625 359.925781 236.375 358.734375 C 235.886719 357.898438 235.402344 357.0625 234.917969 356.222656 C 234.621094 355.714844 234.328125 355.203125 234.023438 354.679688 C 233.765625 354.234375 233.507812 353.789062 233.238281 353.328125 C 232.449219 351.910156 231.726562 350.453125 231 349 Z M 231 349 "/>
<path style=" stroke:none;fill-rule:nonzero;fill:rgb(52.156866%,32.549021%,75.686276%);fill-opacity:1;" d="M 295.5 322 C 295.664062 322.328125 295.828125 322.660156 296 323 C 295.671875 323.496094 295.339844 323.988281 295 324.5 C 293.660156 324.683594 293.660156 324.683594 291.917969 324.679688 C 291.261719 324.683594 290.601562 324.683594 289.925781 324.6875 C 289.191406 324.679688 288.460938 324.675781 287.726562 324.671875 C 286.957031 324.667969 286.1875 324.671875 285.421875 324.671875 C 283.328125 324.671875 281.238281 324.664062 279.148438 324.652344 C 276.964844 324.644531 274.78125 324.640625 272.597656 324.640625 C 268.460938 324.636719 264.324219 324.625 260.1875 324.609375 C 255.480469 324.589844 250.769531 324.582031 246.0625 324.574219 C 236.375 324.558594 226.6875 324.535156 217 324.5 C 216.835938 324.003906 216.671875 323.511719 216.5 323 C 255.359375 323.246094 255.359375 323.246094 295 323.5 C 295.164062 323.003906 295.328125 322.511719 295.5 322 Z M 295.5 322 "/>
<path style=" stroke:none;fill-rule:nonzero;fill:rgb(51.764709%,32.549021%,75.686276%);fill-opacity:1;" d="M 187 322 C 187.675781 322.65625 188.34375 323.324219 189 324 C 189 324.164062 189 324.328125 189 324.5 C 171.511719 324.5 154.019531 324.5 136 324.5 C 136.164062 324.003906 136.328125 323.511719 136.5 323 C 161.496094 323.246094 161.496094 323.246094 187 323.5 C 187 323.003906 187 322.511719 187 322 Z M 187 322 "/>
<path style=" stroke:none;fill-rule:nonzero;fill:rgb(51.764709%,32.156864%,75.686276%);fill-opacity:1;" d="M 231 349 C 247.335938 349 263.671875 349 280.5 349 C 279.757812 350.851562 279.046875 352.335938 278 354 C 277.753906 353.503906 277.753906 353.503906 277.5 353 C 277.996094 352.011719 278.488281 351.019531 279 350 C 263.324219 350 247.648438 350 231.5 350 C 231.335938 349.671875 231.171875 349.339844 231 349 Z M 231 349 "/>
<path style=" stroke:none;fill-rule:nonzero;fill:rgb(50.588238%,30.980393%,75.294119%);fill-opacity:1;" d="M 325.5 321 C 325.664062 321.328125 325.828125 321.660156 326 322 C 325.835938 322.328125 325.671875 322.660156 325.5 323 C 328.261719 323.46875 330.914062 323.570312 333.710938 323.558594 C 334.171875 323.558594 334.628906 323.558594 335.101562 323.558594 C 336.609375 323.554688 338.117188 323.554688 339.625 323.546875 C 340.671875 323.546875 341.71875 323.546875 342.769531 323.546875 C 345.523438 323.542969 348.273438 323.539062 351.027344 323.535156 C 353.839844 323.527344 356.652344 323.527344 359.464844 323.523438 C 364.976562 323.519531 370.488281 323.511719 376 323.5 C 376.246094 323.996094 376.246094 323.996094 376.5 324.5 C 359.011719 324.5 341.519531 324.5 323.5 324.5 C 324.160156 323.34375 324.820312 322.191406 325.5 321 Z M 325.5 321 "/>
<path style=" stroke:none;fill-rule:nonzero;fill:rgb(52.549022%,33.333334%,75.686276%);fill-opacity:1;" d="M 110 97.5 C 108.859375 100.101562 106.828125 101.835938 104.84375 103.8125 C 104.464844 104.199219 104.082031 104.589844 103.691406 104.988281 C 103.136719 105.546875 103.136719 105.546875 102.570312 106.113281 C 102.230469 106.453125 101.894531 106.789062 101.546875 107.136719 C 100.414062 108.070312 99.382812 108.527344 98 109 C 100.257812 106.300781 102.636719 103.769531 105.125 101.28125 C 105.484375 100.914062 105.84375 100.550781 106.214844 100.171875 C 106.558594 99.828125 106.902344 99.484375 107.257812 99.125 C 107.570312 98.8125 107.878906 98.5 108.199219 98.179688 C 109 97.5 109 97.5 110 97.5 Z M 110 97.5 "/>
<path style=" stroke:none;fill-rule:nonzero;fill:rgb(51.764709%,32.156864%,75.686276%);fill-opacity:1;" d="M 161.5 279 C 161.828125 279 162.160156 279 162.5 279 C 164.109375 281.636719 164.109375 281.636719 164.5 282.5 C 164.335938 282.828125 164.171875 283.160156 164 283.5 C 163.339844 282.675781 162.679688 281.851562 162 281 C 161.503906 281.496094 161.011719 281.988281 160.5 282.5 C 160.9375 280.125 160.9375 280.125 161.5 279 Z M 161.5 279 "/>
<path style=" stroke:none;fill-rule:nonzero;fill:rgb(52.156866%,32.941177%,75.294119%);fill-opacity:1;" d="M 95.5 111.5 C 95.664062 111.828125 95.828125 112.160156 96 112.5 C 95.453125 113.171875 94.898438 113.835938 94.34375 114.5 C 93.882812 115.058594 93.882812 115.058594 93.414062 115.625 C 92.5 116.5 92.5 116.5 91 116.5 C 92.484375 114.851562 93.96875 113.199219 95.5 111.5 Z M 95.5 111.5 "/>
<path style=" stroke:none;fill-rule:nonzero;fill:rgb(50.980395%,31.37255%,75.294119%);fill-opacity:1;" d="M 244.5 136 C 244.664062 136.328125 244.828125 136.660156 245 137 C 244.164062 139.375 242.917969 141.355469 241 143 C 241.730469 140.34375 242.992188 138.269531 244.5 136 Z M 244.5 136 "/>
<path style=" stroke:none;fill-rule:nonzero;fill:rgb(50.980395%,31.764707%,75.294119%);fill-opacity:1;" d="M 349.5 279.5 C 352.285156 282.070312 352.285156 282.070312 352.5 284 C 351.675781 283.175781 350.851562 282.351562 350 281.5 C 349.503906 281.664062 349.011719 281.828125 348.5 282 C 348.828125 281.175781 349.160156 280.351562 349.5 279.5 Z M 349.5 279.5 "/>
<path style=" stroke:none;fill-rule:nonzero;fill:rgb(51.764709%,32.941177%,75.294119%);fill-opacity:1;" d="M 340 296 C 340.164062 296.328125 340.328125 296.660156 340.5 297 C 338.792969 300.351562 338.792969 300.351562 337.5 301 C 338.078125 299.042969 338.675781 297.5625 340 296 Z M 340 296 "/>
<path style=" stroke:none;fill-rule:nonzero;fill:rgb(54.11765%,35.294119%,76.47059%);fill-opacity:1;" d="M 49.5 196 C 49.664062 196 49.828125 196 50 196 C 50.183594 198.707031 50.183594 198.707031 49.25 200.1875 C 49.003906 200.457031 48.753906 200.722656 48.5 201 C 48.570312 200.261719 48.644531 199.519531 48.71875 198.78125 C 48.757812 198.371094 48.800781 197.957031 48.84375 197.53125 C 49 196.5 49 196.5 49.5 196 Z M 49.5 196 "/>
<path style=" stroke:none;fill-rule:nonzero;fill:rgb(51.372552%,32.156864%,75.686276%);fill-opacity:1;" d="M 407 181 C 407.164062 181.328125 407.328125 181.660156 407.5 182 C 405.792969 185.351562 405.792969 185.351562 404.5 186 C 405.078125 184.042969 405.675781 182.5625 407 181 Z M 407 181 "/>
</g>
</svg>
