<?xml version="1.0" encoding="UTF-8"?>
<svg version="1.1" xmlns="http://www.w3.org/2000/svg" width="1024" height="1024">
<path d="M0 0 C337.92 0 675.84 0 1024 0 C1024 337.92 1024 675.84 1024 1024 C686.08 1024 348.16 1024 0 1024 C0 686.08 0 348.16 0 0 Z " fill="#8E61C7" transform="translate(0,0)"/>
<path d="M0 0 C337.92 0 675.84 0 1024 0 C1024 337.92 1024 675.84 1024 1024 C686.08 1024 348.16 1024 0 1024 C0 686.08 0 348.16 0 0 Z M232 183 C230.58384449 184.22975555 229.16726131 185.45901902 227.75 186.6875 C226.49885565 187.79036982 225.24903937 188.89474678 224 190 C223.27981689 190.63607178 222.55963379 191.27214355 221.81762695 191.92749023 C215.49823792 197.55798395 209.42392462 203.39297392 203.4375 209.375 C202.11588867 210.67824219 202.11588867 210.67824219 200.76757812 212.0078125 C194.73782649 218.02421413 189.31976151 224.35477379 184 231 C183.07646561 232.0896958 182.14686148 233.17432726 181.20703125 234.25 C122.80688738 301.31965952 91.86151638 388.38859795 84 476 C83.90356201 477.02206543 83.80712402 478.04413086 83.70776367 479.09716797 C82.9269136 488.06547091 82.8006415 497.0053897 82.8125 506 C82.81277191 506.78079926 82.81304382 507.56159851 82.81332397 508.36605835 C82.83755922 523.64027014 83.54249922 538.78878157 85 554 C85.09120117 554.97050293 85.18240234 555.94100586 85.27636719 556.94091797 C87.9768771 584.15921522 94.58122935 611.03136065 103 637 C103.34788574 638.0832959 103.69577148 639.1665918 104.05419922 640.28271484 C109.36146127 656.65628623 115.68770691 672.42131238 123 688 C123.46776855 688.99741211 123.93553711 689.99482422 124.41748047 691.02246094 C134.71130174 712.74090432 146.85763177 733.55488349 161 753 C161.46970215 753.64694824 161.9394043 754.29389648 162.42333984 754.96044922 C173.15959135 769.6659255 184.55803202 783.708072 197 797 C197.9393634 798.02824869 198.87683855 799.05822531 199.8125 800.08984375 C207.15762624 808.18766425 214.61351159 816.08298832 222.92578125 823.203125 C225.20157718 825.1746243 227.40922667 827.21134395 229.625 829.25 C235.82595514 834.83653123 242.38024525 839.92496861 249 845 C249.62680664 845.4837207 250.25361328 845.96744141 250.89941406 846.46582031 C312.10785328 893.60907675 385.26795356 923.84187893 462 933 C462.67688873 933.0864679 463.35377747 933.17293579 464.05117798 933.26202393 C478.23445245 935.04960203 492.31390628 935.3097294 506.59838867 935.26074219 C510.29688012 935.25004518 513.99488277 935.26068836 517.69335938 935.2734375 C536.91247447 935.28520847 555.92124766 934.19585346 574.9375 931.3125 C576.58975586 931.06258301 576.58975586 931.06258301 578.27539062 930.80761719 C618.65013339 924.42376913 658.12529687 912.72294929 695 895 C695.89557617 894.57074219 696.79115234 894.14148438 697.71386719 893.69921875 C733.43456752 876.46587427 767.11458634 854.12466888 796.41796875 827.3359375 C797.82870198 826.05966144 799.24579877 824.78981704 800.69165039 823.5534668 C806.25126975 818.78939322 811.45523638 813.69794566 816.6184082 808.51196289 C818.06025221 807.06475615 819.50737116 805.62297974 820.95507812 804.18164062 C826.18269653 798.95805078 831.21604461 793.63314096 836 788 C836.845625 787.03578125 837.69125 786.0715625 838.5625 785.078125 C855.39339541 765.54997071 870.11477435 744.31316215 883 722 C883.37801758 721.35224609 883.75603516 720.70449219 884.14550781 720.03710938 C906.2547289 681.99381124 922.28100314 640.66269911 931.43164062 597.640625 C931.8914074 595.50452643 932.38572764 593.37588364 932.890625 591.25 C943.36991861 546.65726123 943.901739 498.29745853 938 453 C937.83902832 451.74815918 937.67805664 450.49631836 937.51220703 449.20654297 C927.83167177 376.75596636 899.06073945 305.67132072 854 248 C853.15451811 246.89876736 852.30948794 245.79718779 851.46484375 244.6953125 C842.38875668 232.92481371 832.85603401 221.58112023 822.203125 211.203125 C820.14740189 209.14740189 818.25354044 207.02951619 816.375 204.8125 C813.5858238 201.56491753 810.60844173 198.79368146 807.34375 196.03125 C805.01036729 194.00898499 802.76106723 191.91069136 800.51513672 189.79223633 C793.92833424 183.59860262 787.06829498 177.92579418 779.88183594 172.44482422 C777.92089518 170.9392654 775.97922172 169.41113213 774.0390625 167.87890625 C763.44583757 159.56677752 752.40135346 152.15422115 741 145 C740.36980957 144.59861816 739.73961914 144.19723633 739.09033203 143.78369141 C671.75569741 100.9755418 591.01772422 80.79968613 511.6875 80.75 C510.70844696 80.74932526 509.72939392 80.74865051 508.72067261 80.74795532 C415.02386447 80.84953654 325.47007322 111.37082058 232 183 Z " fill="#FCFCFD" transform="translate(0,0)"/>
<path d="M0 0 C7.89700241 5.79596507 12.20281095 14.08795811 16.7421875 22.5625 C17.7299179 24.37797347 18.72132167 26.19141181 19.71272278 28.00488281 C20.37731168 29.22135714 21.04071678 30.43847896 21.70292664 31.65625 C24.64420998 37.06270124 27.67501669 42.41423589 30.7421875 47.75 C31.47103149 49.02061279 31.47103149 49.02061279 32.21459961 50.31689453 C33.1827329 52.00405079 34.15139495 53.69090375 35.12060547 55.37744141 C37.52228221 59.56013686 39.91297397 63.74910216 42.3046875 67.9375 C45.65768324 73.80815844 49.0137161 79.67705102 52.375 85.54296875 C59.4867076 97.95903664 66.54974351 110.39925706 73.52441406 122.89306641 C78.69470544 132.14744097 83.94337749 141.35591465 89.22119141 150.54931641 C90.5546875 152.875 90.5546875 152.875 92.18270683 156.46705341 C93.19955421 158.35462347 93.19955421 158.35462347 94.5546875 159.875 C97.92232512 160.91198401 97.92232512 160.91198401 101.83987427 160.72782898 C102.57535929 160.73507124 103.3108443 160.74231351 104.06861675 160.74977523 C106.53532996 160.76566152 108.99883433 160.73165757 111.46533203 160.69799805 C113.23293037 160.69933759 115.00052871 160.70380924 116.76811218 160.71118164 C120.57655799 160.72043675 124.38407722 160.70769398 128.19241714 160.67804527 C134.21934544 160.63147731 140.2456134 160.63486118 146.27267456 160.6452179 C156.89902066 160.65704744 167.52492488 160.62612127 178.15118408 160.58605957 C194.12792031 160.52630791 210.10467867 160.50183194 226.08151901 160.51430541 C232.06679562 160.51740781 238.0515038 160.49902642 244.03666997 160.46331251 C247.77051136 160.44469819 251.50424108 160.44244176 255.23812294 160.4442215 C256.96261281 160.44157468 258.68710873 160.43207604 260.41151619 160.41501045 C270.58485337 160.31814424 279.96801882 160.28242972 288.2109375 167.05859375 C288.819375 167.80238281 289.4278125 168.54617188 290.0546875 169.3125 C290.68375 170.05371094 291.3128125 170.79492188 291.9609375 171.55859375 C294.90073249 175.83138401 295.86136691 179.45996327 295.9296875 184.625 C295.95804688 185.58921875 295.98640625 186.5534375 296.015625 187.546875 C294.81437567 196.22030239 289.36154698 204.06270685 285.1171875 211.5625 C284.50029053 212.65828369 283.88339355 213.75406738 283.24780273 214.88305664 C278.76944013 222.80640153 274.18322886 230.66128669 269.52832031 238.48193359 C265.24515047 245.681442 261.04453087 252.926131 256.8671875 260.1875 C252.38602423 267.97441164 247.88630554 275.74838414 243.3203125 283.48583984 C239.81981328 289.41867124 236.33961246 295.36319356 232.8671875 301.3125 C232.28324219 302.31297363 231.69929687 303.31344727 231.09765625 304.34423828 C227.88378826 309.85783448 224.68348329 315.37897925 221.5 320.91015625 C221.16395248 321.49381454 220.82790497 322.07747284 220.48167419 322.67881775 C218.85770991 325.50002245 217.23569372 328.32232007 215.61645508 331.14624023 C215.02759521 332.17048096 214.43873535 333.19472168 213.83203125 334.25 C213.00034424 335.70212891 213.00034424 335.70212891 212.15185547 337.18359375 C210.70161525 339.62741035 209.1537567 341.96231155 207.55859375 344.3125 C206.09277664 346.6656017 205.56368425 347.57053105 205.48046875 350.38671875 C207.02141041 353.95609997 208.81096217 357.31479308 210.7421875 360.6875 C211.40323486 361.85949951 211.40323486 361.85949951 212.07763672 363.05517578 C216.2985912 370.50468822 220.62618578 377.89317985 224.95556641 385.2800293 C229.56722373 393.1542086 234.10307784 401.06973796 238.6171875 409 C243.8951362 418.26857747 249.24845608 427.48770523 254.69604492 436.65771484 C260.11169015 445.78501982 265.40903659 454.97925189 270.69921875 464.1796875 C272.99220831 468.16734241 275.29276927 472.15034099 277.60650635 476.12597656 C278.62304356 477.87273838 279.63812599 479.62033798 280.65283203 481.36816406 C281.9179607 483.54621058 283.18566458 485.72276434 284.45654297 487.89746094 C297.73791145 510.80145934 297.73791145 510.80145934 295.00390625 522.1640625 C292.68299588 529.08789567 288.74234354 533.03345068 282.65234375 536.859375 C278.01111229 539.10652617 273.14393074 539.02603965 268.08195496 539.03321838 C267.33855985 539.03815636 266.59516475 539.04309434 265.82924253 539.04818195 C263.34343927 539.06351463 260.85766175 539.07190608 258.37182617 539.08032227 C256.58785781 539.08990412 254.80389171 539.09991438 253.01992798 539.11032104 C248.17948379 539.1373429 243.33902987 539.1583672 238.49855208 539.17832303 C233.43898356 539.20019934 228.37944492 539.22757999 223.31990051 539.25437927 C213.74006422 539.30428389 204.16021133 539.34923101 194.58034259 539.39240164 C183.67352204 539.44179306 172.76673148 539.49670413 161.85993993 539.55208123 C139.42488377 539.66586703 116.98979883 539.7727135 94.5546875 539.875 C94.12680435 540.64741531 93.6989212 541.41983063 93.2580719 542.21565247 C91.64749654 545.12199548 90.03606817 548.02786225 88.42408752 550.9334259 C87.73082089 552.18342355 87.03788018 553.43360201 86.34529114 554.68397522 C81.32668127 563.7436732 76.18870714 572.7193322 70.89160156 581.61914062 C68.19433229 586.1704131 65.53251533 590.74247461 62.8671875 595.3125 C62.27671631 596.32465576 61.68624512 597.33681152 61.07788086 598.37963867 C56.07862574 606.95814272 51.11725723 615.55825258 46.16137695 624.16186523 C41.41642979 632.39449889 36.63929894 640.60783083 31.83740234 648.80737305 C28.73544706 654.11067354 25.66217919 659.4288839 22.625 664.76953125 C21.95976905 665.93562312 21.29440518 667.10163917 20.62890625 668.26757812 C19.37348492 670.47022618 18.1230822 672.67574608 16.87890625 674.88476562 C4.50608684 696.55786689 4.50608684 696.55786689 -5.4453125 699.875 C-19.7688327 701.14901069 -19.7688327 701.14901069 -25.6472168 696.45288086 C-32.20056079 690.70213243 -36.21904456 683.46721156 -40.4453125 675.9375 C-41.43995377 674.18901501 -42.43461013 672.44053826 -43.43041992 670.69271851 C-44.10860919 669.50154358 -44.78585128 668.30982889 -45.4621582 667.11758423 C-48.73967146 661.3404623 -52.08770616 655.60580614 -55.4453125 649.875 C-60.30733078 641.5580645 -65.13672765 633.22293632 -69.9453125 624.875 C-76.49423546 613.50753651 -83.09211145 602.1693632 -89.71142578 590.84277344 C-92.62542093 585.85509038 -95.5350878 580.8648836 -98.4453125 575.875 C-98.95745961 575.04603305 -99.46960672 574.2170661 -99.99727345 573.36297894 C-103.13297742 568.19268455 -105.78163031 563.26193022 -107.75604248 557.53703308 C-110.434841 550.53700056 -113.38989588 544.51466603 -119.4453125 539.875 C-130.81034299 535.14888435 -145.29480269 537.00267264 -157.28660679 537.40427423 C-162.31818019 537.54579129 -167.34973959 537.54562159 -172.38299561 537.55986023 C-181.90741674 537.60711223 -191.42575246 537.77205003 -200.94779277 537.98386973 C-214.91362303 538.28977913 -228.88133688 538.42994231 -242.84980392 538.55547619 C-243.87706125 538.56478092 -244.90431857 538.57408565 -245.9627049 538.58367234 C-248.01173865 538.60221701 -250.06077517 538.6204582 -252.10981441 538.63838738 C-258.0876072 538.69483422 -264.06323557 538.78953565 -270.03989458 538.91849101 C-273.76150498 538.99576505 -277.48327284 539.05351474 -281.2052803 539.10789871 C-282.92348842 539.13784749 -284.64156931 539.17670771 -286.3593483 539.22540474 C-296.57191803 539.51148519 -305.34108026 539.40309384 -313.33498001 532.1636858 C-318.13318622 527.2000869 -320.50844688 521.35934425 -320.8828125 514.5 C-320.406826 505.06332804 -314.86853243 496.7676459 -310.1328125 488.875 C-308.87294036 486.74654198 -307.61385229 484.6176197 -306.35546875 482.48828125 C-305.70852051 481.39725098 -305.06157227 480.3062207 -304.39501953 479.18212891 C-301.24232454 473.83446971 -298.15979287 468.44683626 -295.0703125 463.0625 C-289.95342555 454.16547457 -284.75854841 445.31862567 -279.5078125 436.5 C-272.35647448 424.48040468 -265.38683387 412.36417108 -258.47702026 400.20501709 C-255.70673669 395.33068967 -252.92515003 390.46289266 -250.13885498 385.59770203 C-248.41903343 382.5942423 -246.70199457 379.58928556 -244.99267578 376.57983398 C-242.16866295 371.61242595 -239.33517813 366.65881522 -236.37109375 361.7734375 C-235.71161743 360.66693848 -235.71161743 360.66693848 -235.03881836 359.53808594 C-234.26086561 358.23687384 -233.46750462 356.94466931 -232.65454102 355.66503906 C-231.49272272 353.80340969 -231.49272272 353.80340969 -230.4453125 350.875 C-231.51050082 346.80942744 -233.15278163 343.31248771 -235.2109375 339.6640625 C-235.76370361 338.67954102 -236.31646973 337.69501953 -236.88598633 336.68066406 C-237.48306396 335.63104492 -238.0801416 334.58142578 -238.6953125 333.5 C-239.63250122 331.84049316 -239.63250122 331.84049316 -240.58862305 330.14746094 C-247.09636042 318.65832119 -253.75504493 307.258492 -260.4453125 295.875 C-263.25905022 291.08405974 -266.07123493 286.2922082 -268.8828125 281.5 C-269.24104095 280.88953827 -269.59926941 280.27907654 -269.96835327 279.65011597 C-276.89930015 267.83629878 -283.75459332 255.97968406 -290.58496094 244.10742188 C-293.14440194 239.66030916 -295.70790837 235.21554772 -298.2722168 230.77124023 C-299.54011578 228.57330185 -300.80722409 226.37490714 -302.07348633 224.17602539 C-304.95046246 219.18271457 -307.83795922 214.19655384 -310.76171875 209.23046875 C-311.52500488 207.92903931 -311.52500488 207.92903931 -312.30371094 206.60131836 C-313.23843148 205.00949995 -314.17752925 203.4202394 -315.12207031 201.83422852 C-319.7301789 193.97180087 -322.16767787 186.56824265 -319.828125 177.4765625 C-317.53467717 171.52983494 -313.83198826 167.2724785 -308.4453125 163.875 C-303.01790578 161.54422892 -298.5485162 160.43805271 -292.61181641 160.51423645 C-291.86585803 160.51167318 -291.11989965 160.5091099 -290.35133648 160.50646895 C-287.87462293 160.50156356 -285.39853151 160.51796947 -282.921875 160.53442383 C-281.13746658 160.53527081 -279.35305711 160.53479358 -277.56864929 160.53309631 C-272.74067229 160.53223769 -267.91292015 160.54984188 -263.08499527 160.57081819 C-258.03348184 160.58960721 -252.98196291 160.59133718 -247.93041992 160.59489441 C-238.37186721 160.60420833 -228.81341777 160.6288133 -219.25491047 160.65894288 C-208.36981965 160.69250719 -197.48472383 160.70897801 -186.59959412 160.72402918 C-164.21477638 160.75536341 -141.83005024 160.80811124 -119.4453125 160.875 C-119.14035355 160.09772552 -118.83539459 159.32045105 -118.52119446 158.5196228 C-117.46677619 155.92775984 -116.24927568 153.59270667 -114.86328125 151.1640625 C-114.35031494 150.26115479 -113.83734863 149.35824707 -113.30883789 148.42797852 C-112.75574951 147.46174561 -112.20266113 146.4955127 -111.6328125 145.5 C-110.4477737 143.41805012 -109.26288188 141.33601657 -108.078125 139.25390625 C-107.47258789 138.19187988 -106.86705078 137.12985352 -106.24316406 136.03564453 C-104.54959166 133.058324 -102.86603189 130.0756642 -101.1875 127.08984375 C-95.15325242 116.35827769 -89.02989386 105.68422863 -82.81225586 95.05786133 C-74.24676546 80.41880966 -65.77269948 65.72671852 -57.37765503 50.98927307 C-54.37800681 45.72372321 -51.36903712 40.46357855 -48.35449219 35.20654297 C-47.10266516 33.02208879 -45.85323012 30.83626174 -44.60644531 28.64892578 C-42.89682002 25.65543854 -41.17318959 22.67047999 -39.4453125 19.6875 C-38.95401855 18.82157227 -38.46272461 17.95564453 -37.95654297 17.06347656 C-33.24288283 8.98972501 -27.80257585 0.82563165 -18.7265625 -2.53125 C-11.61318989 -4.38267575 -6.54339689 -3.17255607 0 0 Z " fill="#FEFEFE" transform="translate(524.4453125,159.125)"/>
<path d="M0 0 C1.94929665 -0.03891357 1.94929665 -0.03891357 3.93797302 -0.07861328 C5.39191827 -0.10219044 6.84586741 -0.12552825 8.29981995 -0.14865112 C9.82067218 -0.17618075 11.34152071 -0.20391586 12.86236572 -0.23184204 C26.77658123 -0.47755137 40.692437 -0.61694072 54.60830593 -0.72828865 C63.96520359 -0.8048616 73.31946344 -0.91341112 82.67481995 -1.10275269 C90.83505008 -1.26789029 98.99344141 -1.37285302 107.15531784 -1.40552509 C111.47482629 -1.42478283 115.78939517 -1.47320168 120.10737419 -1.59332657 C146.35517389 -2.29387935 146.35517389 -2.29387935 152.4157238 1.8822422 C156.0195587 5.80157725 157.86750381 10.08790199 159.35108566 15.14896965 C160.3713975 18.30823708 161.99922101 20.85744979 163.75514221 23.66824341 C164.90823178 25.66911587 166.06056636 27.6704236 167.21217346 29.67214966 C168.50772626 31.92085916 169.80329978 34.16955674 171.09889221 36.41824341 C171.74906311 37.54730103 172.39923401 38.67635864 173.06910706 39.83963013 C176.217994 45.30634946 179.3715061 50.77039853 182.52467346 56.23464966 C183.77469696 58.40130277 185.02469693 60.56796945 186.27467346 62.73464966 C186.89342346 63.80714966 187.51217346 64.87964966 188.14967346 65.98464966 C190.02467346 69.23464966 191.89967346 72.48464966 193.77467346 75.73464966 C194.39382629 76.80779419 195.01297913 77.88093872 195.65089417 78.98660278 C196.89701315 81.14665059 198.14294507 83.30680632 199.38868713 85.46707153 C202.57151755 90.98592045 205.75788258 96.50267967 208.95045471 102.01589966 C212.08384588 107.42780095 215.20330426 112.84754613 218.31617737 118.27127075 C219.9389544 121.08597033 221.57968467 123.88946455 223.22389221 126.69168091 C224.15817138 128.30977493 225.09181245 129.92823763 226.02467346 131.54714966 C226.45240051 132.26386841 226.88012756 132.98058716 227.32081604 133.71902466 C230.09237106 138.58510457 230.09237106 138.58510457 229.77101135 141.66848755 C229.00036712 144.31822308 228.01375375 146.41155245 226.64576721 148.80496216 C225.89492859 150.12790283 225.89492859 150.12790283 225.12892151 151.47756958 C224.57889465 152.42865601 224.0288678 153.37974243 223.46217346 154.35964966 C222.88572083 155.36809937 222.30926819 156.37654907 221.71534729 157.41555786 C216.63084542 166.272935 211.41262227 175.05080747 206.18507385 183.82424927 C201.33448852 191.9738498 196.58940231 200.17904059 191.89967346 208.42214966 C186.41072518 218.06935684 180.87020143 227.68383289 175.26271057 237.26272583 C172.15524647 242.57399583 169.06253141 247.8933072 165.99342346 253.22683716 C165.48713158 254.10639572 165.48713158 254.10639572 164.97061157 255.00372314 C163.33994436 257.83746201 161.71123279 260.67230273 160.0849762 263.50857544 C159.49659973 264.53192993 158.90822327 265.55528442 158.30201721 266.60964966 C157.78888977 267.50425903 157.27576233 268.39886841 156.74708557 269.32058716 C156.17868958 270.28222778 155.61029358 271.24386841 155.02467346 272.23464966 C154.77947905 272.89312991 154.53428463 273.55161016 154.28166008 274.23004436 C153.14130604 276.79270273 152.12473977 278.35373643 150.02467346 280.23464966 C145.15513997 281.50648445 140.26425204 281.3811687 135.26368713 281.34915161 C133.73895963 281.36818575 132.21427053 281.39054319 130.68963623 281.41596985 C126.5528022 281.47377814 122.41739585 281.48023377 118.28021789 281.47391152 C114.8235038 281.47260153 111.3670882 281.49462006 107.91045266 281.51607198 C99.75227247 281.5656331 91.59482215 281.57184367 83.4365387 281.55227661 C75.02901192 281.53296323 66.62449342 281.59095521 58.21755427 281.68647414 C50.99257945 281.76556607 43.76856828 281.79419637 36.54317075 281.78316277 C32.230631 281.77722176 27.920384 281.79069385 23.60825157 281.85366249 C19.54945824 281.91091586 15.49548905 281.90499213 11.43669319 281.85139656 C9.95162552 281.84223244 8.4662266 281.85504183 6.98159027 281.89198685 C2.37574012 281.99856986 -1.64049168 281.85476513 -5.97532654 280.23464966 C-9.66029794 276.27330383 -11.6986616 272.14975277 -13.97532654 267.23464966 C-15.19616235 265.0239737 -16.47920686 262.85849904 -17.76438904 260.68386841 C-19.04488616 258.43101341 -20.32347657 256.17707376 -21.60032654 253.92214966 C-23.0049346 251.45116136 -24.41173133 248.98142362 -25.81907654 246.51199341 C-26.16955048 245.8967984 -26.52002441 245.28160339 -26.88111877 244.64776611 C-31.93906473 235.7789243 -37.10352994 226.97204961 -42.26194763 218.16140747 C-48.76561538 207.05197901 -55.26478966 195.93975838 -61.69798279 184.78933716 C-62.63384216 183.16934814 -62.63384216 183.16934814 -63.58860779 181.51663208 C-64.84033985 179.33922083 -66.08392782 177.15710625 -67.31907654 174.97024536 C-70.46547979 169.42703784 -73.72394941 164.05324944 -77.31517029 158.78543091 C-86.91854235 144.41825155 -86.91854235 144.41825155 -87.01292419 139.1267395 C-85.9799945 134.86327514 -83.29920997 131.66531994 -80.58763123 128.34695435 C-77.38336652 124.14899883 -74.95189297 119.44487846 -72.35032654 114.85964966 C-71.13265111 112.78013117 -69.91255815 110.70202657 -68.69017029 108.62527466 C-65.01327139 102.3330285 -61.45327869 95.97939949 -57.91282654 89.60964966 C-53.07117091 80.908499 -48.10086254 72.29979134 -43.00584412 63.74490356 C-38.62305689 56.37064831 -34.34668814 48.93799012 -30.10032654 41.48464966 C-29.43049184 40.30935338 -28.76065135 39.13406041 -28.09080505 37.95877075 C-27.75830246 37.37534912 -27.42579987 36.79192749 -27.08322144 36.19082642 C-26.58315331 35.31339783 -26.58315331 35.31339783 -26.07298279 34.41824341 C-25.73891922 33.83200195 -25.40485565 33.2457605 -25.06066895 32.64175415 C-21.56869344 26.51634413 -18.06033187 20.40041274 -14.54142761 14.29043579 C-13.55419092 12.5755751 -12.56869892 10.85971037 -11.58323669 9.14382935 C-10.99204041 8.11805786 -10.40084412 7.09228638 -9.79173279 6.03543091 C-9.27038757 5.1296228 -8.74904236 4.2238147 -8.2118988 3.29055786 C-5.92503659 -0.5115481 -4.41040442 0.08210901 0 0 Z " fill="#8F62C7" transform="translate(439.97532653808594,368.7653503417969)"/>
<path d="M0 0 C34.98 0 69.96 0 106 0 C104.46225159 3.84437103 102.90554866 7.10237512 100.8671875 10.6640625 C100.23425781 11.77201172 99.60132813 12.87996094 98.94921875 14.02148438 C98.25800612 15.22276768 97.56659438 16.42393644 96.875 17.625 C96.15489667 18.88082999 95.43484547 20.13668987 94.71484375 21.39257812 C89.24505254 30.91507392 83.65767386 40.36481084 78.03417969 49.79736328 C72.25321985 59.51547904 66.63116756 69.31996581 61.05078125 79.15429688 C60.41785156 80.26869141 59.78492188 81.38308594 59.1328125 82.53125 C58.57480957 83.51673828 58.01680664 84.50222656 57.44189453 85.51757812 C56.35812912 87.38343094 55.19691323 89.20463015 54 91 C53.34 91 52.68 91 52 91 C51.58339111 90.26700684 51.16678223 89.53401367 50.73754883 88.77880859 C42.74255545 74.72261702 34.69577324 60.70449759 26.4375 46.80078125 C21.91481537 39.18355735 17.44592315 31.53472731 12.97341919 23.88796997 C11.93192422 22.10735532 10.88980182 20.32710892 9.84765625 18.546875 C9.19812988 17.43634766 8.54860352 16.32582031 7.87939453 15.18164062 C5.64128873 11.39273508 3.34784489 7.63942631 1.02905273 3.89941406 C0 2 0 2 0 0 Z " fill="#8E61C7" transform="translate(271,369)"/>
<path d="M0 0 C34.65 0 69.3 0 105 0 C97.19148936 15.61702128 97.19148936 15.61702128 94 20.75 C89.85438072 27.51289119 85.88558197 34.37017905 81.9375 41.25 C75.83902593 51.86514185 69.63866106 62.41510077 63.36694336 72.92871094 C59.81055259 78.89991245 56.32546528 84.89682748 53 91 C49.22983584 89.74327861 48.99288597 88.70437669 47.13671875 85.27734375 C46.58693359 84.27638672 46.03714844 83.27542969 45.47070312 82.24414062 C44.58801758 80.60735352 44.58801758 80.60735352 43.6875 78.9375 C42.42249688 76.6330574 41.15551998 74.32969734 39.88671875 72.02734375 C39.56339569 71.4387558 39.24007263 70.85016785 38.9069519 70.2437439 C35.70828984 64.43418126 32.36561916 58.71388069 29 53 C22.90822612 42.6269175 17.0075 32.1547992 11.15625 21.64453125 C9.24291641 18.21073983 7.31323118 14.78861873 5.34375 11.38671875 C4.96138184 10.72623535 4.57901367 10.06575195 4.18505859 9.38525391 C3.21321928 7.71419165 2.2357923 6.04638226 1.2578125 4.37890625 C0 2 0 2 0 0 Z " fill="#8E61C7" transform="translate(648,369)"/>
<path d="M0 0 C0.66 0 1.32 0 2 0 C2.38631592 0.67240723 2.77263184 1.34481445 3.1706543 2.03759766 C10.42953029 14.66480524 17.7164411 27.27209173 25.14868164 39.79833984 C29.17838511 46.59396082 33.1568293 53.41830129 37.125 60.25 C41.90674723 68.48083276 46.77806733 76.64743583 51.80126953 84.73339844 C55 89.9004849 55 89.9004849 55 91 C20.02 91 -14.96 91 -51 91 C-49.54877547 87.37193866 -48.12455815 84.25771216 -46.234375 80.88671875 C-45.68144775 79.89873291 -45.12852051 78.91074707 -44.55883789 77.89282227 C-43.96192139 76.83506592 -43.36500488 75.77730957 -42.75 74.6875 C-42.12665771 73.57882568 -41.50331543 72.47015137 -40.86108398 71.32788086 C-35.53246165 61.88043899 -30.08157052 52.5064223 -24.59765625 43.1484375 C-20.70748048 36.50877374 -16.84933144 29.85088455 -13 23.1875 C-12.38906494 22.13248291 -11.77812988 21.07746582 -11.14868164 19.99047852 C-7.33242612 13.37966287 -3.62273458 6.71881247 0 0 Z " fill="#8E61C7" transform="translate(323,558)"/>
<path d="M0 0 C5.41593027 4.62908757 8.42358995 10.53298247 11.875 16.6875 C12.53347389 17.8471733 13.19283324 19.00634421 13.85302734 20.16503906 C15.22388373 22.57273795 16.59091781 24.98254422 17.95507812 27.39404297 C21.14704326 33.03069613 24.3867286 38.63986458 27.625 44.25 C28.54986206 45.85536621 28.54986206 45.85536621 29.4934082 47.49316406 C34.13823283 55.5437857 38.84703957 63.55512085 43.61376953 71.53417969 C47.23652196 77.62097596 50.60138094 83.76919838 54 90 C19.02 90 -15.96 90 -52 90 C-47.26189649 81.11605593 -42.55029995 72.3398723 -37.4375 63.6875 C-36.21549356 61.60715385 -34.99416299 59.52641056 -33.7734375 57.4453125 C-33.15178711 56.38602539 -32.53013672 55.32673828 -31.88964844 54.23535156 C-29.38029708 49.93897893 -26.90311649 45.62449349 -24.42626953 41.30932617 C-16.45965809 27.43089211 -8.28386447 13.69101717 0 0 Z " fill="#8E61C7" transform="translate(699,559)"/>
<path d="M0 0 C0.66 0 1.32 0 2 0 C2.35078613 0.63164062 2.70157227 1.26328125 3.06298828 1.9140625 C9.63867688 13.74050341 16.26482283 25.52337148 23.125 37.1875 C28.68636622 46.65259951 34.00582054 56.22821128 39.22265625 65.88671875 C42.21140988 71.41460897 45.29229945 76.88847886 48.41137695 82.34375 C51 86.89613513 51 86.89613513 51 88 C18 88 -15 88 -49 88 C-44.68579631 79.37159261 -40.42046106 71.05403844 -35.5 62.8125 C-29.69714108 52.97968209 -24.09266573 43.05110879 -18.57006836 33.05859375 C-12.45516382 21.99635805 -6.23995406 10.99207853 0 0 Z " fill="#8E60C6" transform="translate(511,232)"/>
<path d="M0 0 C32.67 0 65.34 0 99 0 C97.49435603 3.76410993 95.96798631 7.03540064 94.015625 10.55078125 C93.4175 11.62908203 92.819375 12.70738281 92.203125 13.81835938 C91.55230712 14.98319798 90.90125939 16.14790819 90.25 17.3125 C89.91742187 17.90957764 89.58484375 18.50665527 89.2421875 19.12182617 C84.04637149 28.44876211 78.71403888 37.68911879 73.29882812 46.890625 C67.97798251 55.96203262 62.8701294 65.14606925 57.796875 74.35742188 C57.19875 75.44216797 56.600625 76.52691406 55.984375 77.64453125 C55.45553711 78.60721924 54.92669922 79.56990723 54.38183594 80.56176758 C53.32932029 82.41891843 52.18409959 84.22385062 51 86 C50.34 86 49.68 86 49 86 C48.59386475 85.2879541 48.18772949 84.5759082 47.76928711 83.84228516 C40.35041076 70.83871577 32.92223074 57.84081672 25.4375 44.875 C24.83252686 43.82683105 24.22755371 42.77866211 23.60424805 41.69873047 C20.70108104 36.6709853 17.79498276 31.64495388 14.88441467 26.62149048 C13.50413447 24.2386164 12.12517229 21.85498099 10.74636841 19.47125244 C9.77681002 17.79631501 8.8053026 16.12250627 7.83374023 14.44873047 C7.24407471 13.42924316 6.65440918 12.40975586 6.046875 11.359375 C5.52963867 10.46702148 5.01240234 9.57466797 4.47949219 8.65527344 C2.89829755 5.81747264 1.45281037 2.90562074 0 0 Z " fill="#8E61C7" transform="translate(462,698)"/>
<path d="M0 0 C0.33 0.66 0.66 1.32 1 2 C0.34 2.99 -0.32 3.98 -1 5 C-3.68240547 5.36914349 -3.68240547 5.36914349 -7.16287231 5.36076355 C-8.47822968 5.36488754 -9.79358704 5.36901154 -11.14880371 5.3732605 C-12.61499226 5.36264228 -14.08117877 5.35173784 -15.54736328 5.34057617 C-17.08458439 5.33973035 -18.6218067 5.34020416 -20.1590271 5.34190369 C-24.34069892 5.34276683 -28.52211425 5.32508963 -32.70372629 5.30418181 C-37.07060869 5.28546807 -41.43749653 5.28366877 -45.80441284 5.28010559 C-54.07757311 5.27076949 -62.35061489 5.24613462 -70.62372291 5.21605712 C-80.04074392 5.18256171 -89.45777049 5.16603935 -98.87483621 5.15097082 C-118.24995806 5.11958637 -137.62496951 5.06679556 -157 5 C-157.33 4.01 -157.66 3.02 -158 2 C-80.285 2.495 -80.285 2.495 -1 3 C-0.67 2.01 -0.34 1.02 0 0 Z " fill="#8553C1" transform="translate(591,644)"/>
<path d="M0 0 C1.35432675 1.31200404 2.68733482 2.64631404 4 4 C4 4.33 4 4.66 4 5 C-30.98 5 -65.96 5 -102 5 C-101.67 4.01 -101.34 3.02 -101 2 C-51.005 2.495 -51.005 2.495 0 3 C0 2.01 0 1.02 0 0 Z " fill="#8453C1" transform="translate(374,644)"/>
<path d="M0 0 C32.67 0 65.34 0 99 0 C97.51799926 3.70500184 96.091496 6.67262 94 10 C93.505 9.01 93.505 9.01 93 8 C93.99 6.02 94.98 4.04 96 2 C64.65 2 33.3 2 1 2 C0.67 1.34 0.34 0.68 0 0 Z " fill="#8452C1" transform="translate(462,698)"/>
<path d="M0 0 C0.33 0.66 0.66 1.32 1 2 C0.67 2.66 0.34 3.32 0 4 C5.51986122 4.93464137 10.83150229 5.13707308 16.42358398 5.11352539 C17.3414418 5.11367142 18.25929962 5.11381744 19.20497131 5.1139679 C22.21870339 5.11327493 25.23237256 5.10551151 28.24609375 5.09765625 C30.34359198 5.09578988 32.44109065 5.09436701 34.53858948 5.09336853 C40.04423233 5.0895606 45.54984858 5.07974509 51.05548096 5.06866455 C56.67956177 5.0584133 62.3036469 5.05386296 67.92773438 5.04882812 C78.95183457 5.03812123 89.97591507 5.02106559 101 5 C101.495 5.99 101.495 5.99 102 7 C67.02 7 32.04 7 -4 7 C-2.68 4.69 -1.36 2.38 0 0 Z " fill="#814FC0" transform="translate(651,642)"/>
<path d="M0 0 C-2.28010083 5.19941438 -6.34360732 8.67268582 -10.3125 12.625 C-11.07240234 13.40101563 -11.83230469 14.17703125 -12.61523438 14.9765625 C-13.72801758 16.0903125 -13.72801758 16.0903125 -14.86328125 17.2265625 C-15.53657471 17.90283691 -16.20986816 18.57911133 -16.90356445 19.27587891 C-19.16848268 21.13856116 -21.23795651 22.05836008 -24 23 C-19.48548042 17.59819276 -14.72464159 12.54169712 -9.75 7.5625 C-9.03070313 6.83095703 -8.31140625 6.09941406 -7.5703125 5.34570312 C-6.88195312 4.65541016 -6.19359375 3.96511719 -5.484375 3.25390625 C-4.86272461 2.62814697 -4.24107422 2.0023877 -3.60058594 1.35766602 C-2 0 -2 0 0 0 Z " fill="#8655C1" transform="translate(220,195)"/>
<path d="M0 0 C0.66 0 1.32 0 2 0 C5.22265625 5.2734375 5.22265625 5.2734375 6 7 C5.67 7.66 5.34 8.32 5 9 C3.68 7.35 2.36 5.7 1 4 C0.01 4.99 -0.98 5.98 -2 7 C-1.125 2.25 -1.125 2.25 0 0 Z " fill="#8452C1" transform="translate(323,558)"/>
<path d="M0 0 C0.33 0.66 0.66 1.32 1 2 C-0.09346881 3.34212062 -1.2001575 4.67347975 -2.3125 6 C-3.23482422 7.11375 -3.23482422 7.11375 -4.17578125 8.25 C-6 10 -6 10 -9 10 C-6.03 6.7 -3.06 3.4 0 0 Z " fill="#8554C0" transform="translate(191,223)"/>
<path d="M0 0 C0.33 0.66 0.66 1.32 1 2 C-0.67534656 6.74852829 -3.16479692 10.71268307 -7 14 C-5.53967505 8.68972746 -3.01679014 4.53669968 0 0 Z " fill="#8250C0" transform="translate(489,272)"/>
<path d="M0 0 C5.57142857 5.14285714 5.57142857 5.14285714 6 9 C4.35 7.35 2.7 5.7 1 4 C0.01 4.33 -0.98 4.66 -2 5 C-1.34 3.35 -0.68 1.7 0 0 Z " fill="#8251C0" transform="translate(699,559)"/>
<path d="M0 0 C0.33 0.66 0.66 1.32 1 2 C-2.41176471 8.70588235 -2.41176471 8.70588235 -5 10 C-3.84414715 6.08788267 -2.64465038 3.1254959 0 0 Z " fill="#8454C0" transform="translate(680,592)"/>
<path d="M0 0 C0.33 0 0.66 0 1 0 C1.36923077 5.41538462 1.36923077 5.41538462 -0.5 8.375 C-0.995 8.91125 -1.49 9.4475 -2 10 C-1.85950482 8.52031676 -1.71245174 7.04125484 -1.5625 5.5625 C-1.48128906 4.73878906 -1.40007812 3.91507812 -1.31640625 3.06640625 C-1 1 -1 1 0 0 Z " fill="#8A5AC3" transform="translate(99,392)"/>
<path d="M0 0 C0.33 0.66 0.66 1.32 1 2 C-2.41176471 8.70588235 -2.41176471 8.70588235 -5 10 C-3.84414715 6.08788267 -2.64465038 3.1254959 0 0 Z " fill="#8352C1" transform="translate(814,362)"/>
</svg>
